<?xml version="1.0" standalone="no"?>
<!DOCTYPE svg PUBLIC "-//W3C//DTD SVG 20010904//EN"
 "http://www.w3.org/TR/2001/REC-SVG-20010904/DTD/svg10.dtd">
<svg version="1.0" xmlns="http://www.w3.org/2000/svg"
 width="225.000000pt" height="225.000000pt" viewBox="0 0 225.000000 225.000000"
 preserveAspectRatio="xMidYMid meet">

<g transform="translate(0.000000,225.000000) scale(0.100000,-0.100000)"
fill="#000000" stroke="none">
<path d="M161 1488 c-8 -17 -11 -90 -9 -258 3 -233 3 -235 26 -245 18 -8 22
-18 22 -57 0 -36 4 -48 15 -48 8 0 15 -9 15 -21 0 -11 5 -17 10 -14 6 3 10 15
10 25 0 10 14 30 31 44 29 25 36 26 149 26 69 0 130 -5 145 -12 14 -6 33 -29
42 -50 l17 -38 230 2 230 3 1 43 c2 67 21 79 143 85 62 4 102 2 102 -3 0 -6
-16 -10 -35 -10 -48 0 -91 -24 -110 -60 -17 -33 -20 -64 -5 -55 5 3 10 15 10
25 0 10 14 30 31 44 29 25 36 26 154 26 117 0 125 -1 153 -25 16 -14 33 -36
36 -50 4 -15 11 -22 20 -19 10 4 16 -3 18 -18 3 -22 8 -23 91 -26 l87 -3 0 26
c0 18 5 25 20 25 14 0 20 -7 20 -21 0 -51 58 -95 111 -84 34 8 69 48 69 81 0
13 4 24 9 24 5 0 25 10 45 23 33 20 35 26 36 74 0 42 -4 54 -20 63 -11 6 -20
21 -20 34 0 32 -16 43 -75 53 l-49 8 -26 84 c-19 65 -30 86 -48 92 -12 5 -22
15 -22 23 0 8 -12 24 -27 36 -22 17 -38 20 -92 18 l-66 -3 -6 -35 c-4 -21 -7
8 -8 69 -1 95 -2 103 -16 85 -10 -13 -14 -45 -15 -102 0 -64 -3 -84 -15 -88
-12 -5 -15 -29 -15 -126 l0 -120 37 -50 36 -50 -64 6 c-109 9 -159 18 -159 27
0 5 20 9 45 9 l45 0 -2 263 -3 262 -671 3 -671 2 -12 -22z m1604 -268 c-3 -5
-19 -10 -35 -10 -16 0 -32 5 -35 10 -4 6 10 10 35 10 25 0 39 -4 35 -10z m137
-60 l16 -50 -23 0 c-12 0 -37 3 -54 6 -29 6 -31 9 -31 50 l0 44 38 0 c37 0 39
-2 54 -50z m-132 10 c0 -5 -18 -10 -40 -10 -22 0 -40 5 -40 10 0 6 18 10 40
10 22 0 40 -4 40 -10z m-5 -60 c-3 -5 -19 -10 -35 -10 -16 0 -32 5 -35 10 -4
6 10 10 35 10 25 0 39 -4 35 -10z m315 -160 c0 -27 -4 -50 -10 -50 -11 0 -14
83 -3 93 12 12 13 8 13 -43z m-127 -102 c22 -34 -36 -66 -62 -34 -9 11 -10 20
-1 36 13 25 47 24 63 -2z"/>
<path d="M295 897 c-20 -16 -27 -33 -28 -60 -2 -77 91 -121 146 -69 23 22 24
22 41 3 59 -65 172 -2 150 83 -14 59 -96 86 -145 47 -24 -19 -25 -19 -48 0
-32 26 -84 24 -116 -4z m85 -42 c20 -25 8 -50 -25 -50 -21 0 -31 5 -33 18 -4
21 14 47 33 47 7 0 18 -7 25 -15z m165 -20 c0 -25 -4 -31 -27 -33 -19 -2 -28
2 -33 18 -8 27 12 52 39 48 16 -2 21 -10 21 -33z"/>
<path d="M1252 904 c-34 -23 -45 -60 -31 -101 20 -61 102 -80 145 -32 17 19
18 19 38 0 48 -43 114 -33 142 21 43 83 -63 168 -137 109 -24 -19 -25 -19 -48
0 -28 23 -79 25 -109 3z m78 -49 c20 -25 8 -50 -25 -50 -24 0 -31 5 -33 24 -6
37 34 55 58 26z m158 6 c8 -4 12 -19 10 -32 -4 -33 -53 -40 -63 -9 -11 36 22
61 53 41z"/>
</g>
</svg>
