<?xml version="1.0" standalone="no"?>
<!DOCTYPE svg PUBLIC "-//W3C//DTD SVG 20010904//EN"
 "http://www.w3.org/TR/2001/REC-SVG-20010904/DTD/svg10.dtd">
<svg version="1.0" xmlns="http://www.w3.org/2000/svg"
 width="600.000000pt" height="453.000000pt" viewBox="0 0 600.000000 453.000000"
 preserveAspectRatio="xMidYMid meet">

<g transform="translate(0.000000,453.000000) scale(0.100000,-0.100000)"
fill="#000000" stroke="none">
<path d="M2483 4245 c-83 -23 -191 -82 -250 -137 -29 -28 -51 -53 -48 -56 2
-3 29 11 58 31 76 50 163 93 231 112 81 24 225 17 281 -12 49 -25 79 -58 72
-76 -8 -20 -209 -85 -214 -69 -15 41 -139 57 -221 28 -150 -54 -301 -246 -310
-394 -5 -69 11 -81 21 -17 3 20 25 75 48 123 69 143 191 247 305 260 42 4 104
-12 104 -28 0 -4 -29 -26 -64 -49 -167 -109 -315 -332 -383 -577 -26 -92 -27
-112 -28 -299 0 -185 2 -205 24 -270 28 -81 68 -165 79 -165 5 0 16 6 26 13
18 13 17 18 -18 95 -20 45 -43 112 -51 149 -19 88 -19 284 0 398 43 264 194
516 381 635 60 38 186 77 277 85 69 7 86 23 36 35 -19 5 -10 9 37 18 238 48
483 8 680 -110 266 -159 431 -387 490 -680 20 -101 14 -302 -11 -388 -71 -235
-221 -435 -410 -547 -138 -81 -319 -132 -470 -133 -250 0 -438 55 -640 189
-38 25 -75 49 -81 53 -5 4 -23 -1 -38 -11 l-28 -18 81 -57 c159 -113 367 -191
538 -204 51 -4 97 -12 103 -18 7 -7 4 -55 -10 -158 -22 -155 -30 -186 -51
-202 -29 -22 -628 -305 -1199 -566 -199 -91 -340 -151 -345 -146 -12 13 71
247 198 553 40 99 97 250 126 336 l52 156 49 6 c78 9 146 51 176 109 8 15 14
51 14 81 l0 53 165 113 c157 107 195 124 195 87 0 -15 -75 -56 -103 -56 -18 0
-77 -74 -77 -97 0 -12 7 -11 33 5 156 94 186 114 202 132 18 20 18 21 -3 49
-18 25 -20 34 -11 60 8 22 8 40 1 60 -12 34 3 56 28 41 12 -8 13 -13 2 -30
-11 -17 -10 -20 7 -20 11 0 22 4 25 9 3 4 16 6 30 4 35 -7 166 32 249 73 77
39 187 110 278 180 103 79 199 204 185 241 -8 21 -21 9 -61 -53 -48 -75 -122
-143 -242 -224 -123 -83 -222 -132 -323 -159 l-74 -21 -38 27 -39 26 -27 -20
c-15 -11 -40 -23 -56 -27 -16 -4 -86 -44 -155 -88 -258 -166 -276 -175 -376
-186 -50 -6 -103 -16 -117 -23 -33 -14 -86 -87 -94 -128 -8 -39 9 -41 32 -3
53 86 68 106 71 95 4 -10 11 -9 33 2 72 37 148 7 190 -76 58 -112 -6 -189
-156 -189 -60 0 -82 -17 -63 -47 9 -16 -2 -52 -64 -213 -41 -107 -118 -298
-170 -425 -129 -309 -175 -475 -133 -475 38 0 1243 549 1474 672 62 33 115 58
117 56 5 -4 -59 -323 -94 -468 -23 -97 -76 -284 -185 -652 -42 -142 -76 -260
-76 -263 0 -3 11 -5 25 -5 21 0 27 7 41 58 9 31 53 185 99 342 107 365 146
514 190 730 45 227 44 222 54 215 5 -3 51 -78 103 -168 97 -170 411 -647 519
-789 98 -130 177 -211 225 -230 23 -9 82 -24 131 -33 130 -24 126 -22 108 -48
-20 -28 -19 -81 1 -101 14 -15 -58 -16 -793 -17 -1427 -3 -3101 -14 -3108 -21
-4 -4 -4 -11 0 -17 7 -12 5409 -16 5439 -5 9 3 16 12 16 20 0 12 -59 14 -358
14 -197 0 -460 3 -584 7 l-226 6 29 24 c58 49 45 128 -33 199 -40 36 -41 36
-112 32 -50 -3 -90 -13 -132 -32 -80 -38 -182 -33 -330 15 -56 18 -66 26 -130
107 -217 271 -754 1094 -754 1154 0 13 7 59 14 103 8 44 17 115 21 157 l7 77
46 6 c161 20 255 47 377 108 250 124 435 348 521 632 24 80 27 106 27 235 0
125 -4 158 -26 243 -77 284 -239 489 -509 644 -199 114 -434 148 -670 97 -23
-5 -29 -2 -41 28 -29 69 -121 108 -250 107 -45 0 -105 -7 -134 -14z m-15
-1542 c3 -17 -30 -44 -190 -157 l-193 -136 -27 32 c-15 17 -25 34 -23 38 3 4
46 32 97 63 51 31 138 85 193 121 103 68 138 77 143 39z m2049 -2198 c43 -37
69 -85 59 -110 -21 -57 -313 -72 -365 -20 -14 14 -14 18 -1 43 19 33 101 96
144 110 17 5 52 10 77 11 38 1 52 -4 86 -34z"/>
<path d="M2595 3806 c-23 -7 -40 -18 -40 -26 0 -8 7 -13 15 -11 8 2 65 6 127
10 112 6 130 11 118 30 -9 15 -169 13 -220 -3z"/>
<path d="M2662 3627 c-18 -19 -22 -35 -22 -95 0 -83 17 -133 54 -157 107 -70
147 148 47 253 -28 28 -52 28 -79 -1z"/>
<path d="M2297 3596 c-13 -14 -32 -52 -41 -84 -19 -68 -20 -85 -6 -80 13 4 84
177 76 185 -3 3 -16 -7 -29 -21z"/>
<path d="M2403 3455 c-35 -25 -47 -78 -33 -144 29 -136 81 -184 133 -121 54
64 43 176 -23 242 -42 43 -47 44 -77 23z"/>
<path d="M4175 2719 c-4 -6 -5 -12 -3 -14 2 -2 129 -7 283 -12 l280 -8 -3 -50
c-4 -67 -45 -314 -92 -560 -36 -187 -50 -278 -99 -645 -11 -80 -47 -271 -80
-425 -64 -300 -79 -395 -64 -395 12 0 31 68 78 276 67 293 95 447 125 679 16
127 56 392 89 590 33 198 63 387 67 420 3 33 10 66 14 74 9 18 13 12 70 -124
23 -55 58 -127 78 -160 l36 -59 -23 -161 c-13 -88 -49 -317 -81 -510 -73 -437
-83 -506 -120 -842 -17 -149 -35 -294 -42 -322 -12 -54 -7 -71 15 -52 20 16
42 137 82 466 19 160 60 441 90 625 73 452 107 692 109 770 1 61 -4 74 -75
224 -42 88 -91 175 -108 193 l-32 33 -294 0 c-197 0 -296 -4 -300 -11z"/>
<path d="M1805 2363 c-20 -5 -147 -93 -197 -137 -33 -30 -158 -192 -158 -206
0 -14 14 -13 47 5 15 8 64 29 108 46 45 17 125 62 185 102 l105 72 1 43 c0 57
-37 88 -91 75z m45 -58 c7 -8 10 -21 7 -29 -6 -16 -165 -126 -182 -126 -6 0
-16 13 -22 30 -11 30 -10 31 64 85 77 56 111 66 133 40z m-235 -170 c0 -20
-49 -54 -61 -43 -9 10 36 70 50 65 6 -2 11 -12 11 -22z"/>
<path d="M2307 2314 c-22 -44 -61 -174 -121 -402 -30 -114 -72 -263 -95 -332
-22 -68 -39 -126 -37 -128 2 -1 15 7 29 20 32 29 65 133 162 508 41 157 79
298 85 314 15 41 -4 57 -23 20z"/>
<path d="M1934 1084 c-56 -56 -196 -544 -156 -544 19 0 30 27 62 155 18 72 53
188 77 258 47 134 50 164 17 131z"/>
<path d="M1006 462 c-20 -20 37 -112 69 -112 25 0 25 18 1 47 l-25 30 472 -4
c260 -2 575 -8 700 -13 l228 -9 35 -30 c34 -31 58 -39 68 -23 3 5 -12 27 -32
51 l-37 43 -180 8 c-214 10 -1291 20 -1299 12z"/>
</g>
</svg>
