<svg version="1.0" xmlns="http://www.w3.org/2000/svg"
 width="980.000000pt" height="980.000000pt"  
 preserveAspectRatio="xMidYMid meet">

<g transform="translate(98.000000,980.000000) scale(0.10000,-0.100000)"
fill="#FFFFFF" stroke="none">
<path d="M739 6541 c-21 -22 -29 -39 -29 -65 0 -34 -2 -36 -35 -36 l-35 0 0
-1035 0 -1035 35 0 c32 0 35 -3 35 -29 0 -15 9 -40 20 -54 18 -22 30 -26 83
-29 l62 -3 3 -207 2 -208 64 0 c34 0 65 -2 68 -5 3 -3 -1 -29 -9 -57 -7 -29
-13 -65 -13 -80 0 -26 3 -28 38 -28 l38 0 11 66 c28 164 143 295 301 344 60
19 94 20 522 20 422 0 463 -2 519 -19 155 -48 267 -171 300 -330 6 -30 16 -61
23 -68 15 -19 2000 -19 2016 0 6 6 12 81 14 167 3 136 6 161 26 205 29 64 74
110 137 143 55 28 99 31 673 46 l232 6 0 -35 0 -35 -133 0 c-87 0 -153 -5
-192 -15 -207 -54 -359 -225 -384 -433 l-8 -63 41 3 41 3 7 60 c21 163 162
316 329 354 71 17 932 14 995 -3 165 -44 305 -201 321 -360 l6 -56 37 0 c29 0
39 4 43 20 4 15 14 20 41 20 l36 0 0 -70 c0 -78 14 -116 56 -149 26 -20 37
-21 336 -21 392 0 388 -1 398 155 l5 80 79 0 80 0 -3 -63 c-4 -113 49 -236
134 -311 22 -19 69 -48 105 -65 58 -27 75 -30 156 -30 85 -1 96 2 167 37 144
71 218 186 223 347 l3 85 60 6 c66 6 117 37 147 88 13 22 31 32 74 44 65 19
105 57 115 111 4 18 5 111 3 207 -3 153 -5 178 -23 203 -21 31 -69 56 -110 56
-25 0 -25 1 -25 78 0 42 -5 94 -11 115 -13 46 -58 99 -103 121 -19 9 -128 30
-242 46 -114 17 -208 31 -209 33 -1 1 -47 154 -103 340 -105 356 -120 390
-185 424 -18 9 -48 19 -67 22 -30 5 -35 11 -42 44 -12 58 -52 128 -100 173
-100 94 -140 104 -431 104 -252 0 -278 -5 -310 -59 -13 -23 -17 -54 -17 -145
0 -109 -1 -116 -20 -116 -20 0 -20 7 -20 445 0 245 -3 445 -7 445 -5 -1 -34
-34 -65 -74 l-58 -74 0 -371 0 -371 -31 0 c-45 0 -86 -29 -104 -72 -13 -33
-15 -109 -15 -497 0 -252 3 -473 6 -490 4 -19 64 -103 160 -223 85 -106 154
-198 154 -205 0 -10 -51 -13 -234 -13 l-234 0 -63 30 c-85 39 -147 50 -295 50
l-124 0 0 35 0 35 160 0 c167 0 210 9 224 45 8 22 8 2208 0 2230 -19 47 138
45 -2954 45 l-2892 0 -29 -29z m6951 -1211 l0 -40 -155 0 -155 0 0 40 0 40
155 0 155 0 0 -40z m541 -112 c11 -40 42 -144 69 -230 26 -87 46 -159 44 -161
-2 -2 -90 9 -196 24 -106 16 -201 28 -210 28 -43 2 -48 23 -48 206 0 144 3
176 16 189 13 13 42 16 159 16 l144 0 22 -72z m-541 -128 l0 -40 -155 0 -155
0 0 40 0 40 155 0 155 0 0 -40z m0 -240 l0 -40 -155 0 -155 0 0 40 0 40 155 0
155 0 0 -40z m1374 -526 c13 -13 16 -45 16 -190 0 -161 -2 -176 -20 -194 -11
-11 -29 -20 -40 -20 -19 0 -20 7 -20 210 l0 210 24 0 c14 0 32 -7 40 -16z
m-619 -563 c136 -78 73 -291 -87 -291 -70 0 -148 80 -148 152 0 128 124 202
235 139z"/>
<path d="M1425 4003 c-120 -43 -189 -106 -242 -219 -25 -52 -28 -71 -28 -159
0 -93 2 -105 33 -167 79 -160 259 -253 424 -219 34 7 84 24 112 38 53 27 150
119 161 153 9 28 18 25 39 -15 43 -80 151 -152 259 -175 130 -27 274 23 367
128 71 80 94 144 95 262 0 86 -3 101 -32 162 -40 85 -106 151 -191 191 -61 29
-75 32 -167 32 -89 0 -107 -3 -162 -29 -58 -27 -149 -107 -182 -161 -12 -20
-12 -20 -24 0 -34 55 -115 128 -175 157 -54 27 -78 32 -151 35 -64 3 -99 -1
-136 -14z m199 -242 c46 -25 69 -64 74 -123 4 -58 -17 -102 -69 -141 -66 -48
-183 -20 -221 53 -74 142 76 290 216 211z m725 -8 c42 -31 63 -80 58 -141 -3
-43 -10 -59 -38 -88 -123 -127 -325 5 -255 169 36 87 156 117 235 60z"/>
<path d="M5563 4006 c-184 -60 -307 -254 -275 -436 31 -175 151 -296 326 -331
73 -15 168 0 243 37 50 26 129 99 164 154 l16 25 16 -31 c26 -51 131 -140 190
-163 83 -30 162 -36 238 -17 298 77 403 432 193 656 -69 73 -154 113 -257 118
-156 8 -273 -50 -359 -179 l-24 -37 -28 44 c-36 57 -93 106 -164 140 -47 22
-74 28 -147 31 -58 2 -105 -2 -132 -11z m223 -267 c79 -77 61 -200 -38 -250
-96 -49 -211 12 -225 119 -7 50 25 122 65 148 61 40 146 33 198 -17z m669 28
c99 -48 121 -168 46 -247 -81 -86 -214 -57 -256 55 -23 59 -13 106 31 155 49
54 116 68 179 37z"/>
</g>
</svg>